<svg xmlns="http://www.w3.org/2000/svg" viewBox="0 0 684 683" width="684" height="683">
  <rect width="684" height="683" fill="#ffffff"/>
  <path fill="#1a1a1a" transform="translate(-57, -57) scale(1.167)" d="m 337.75,492.8692 c -2.8875,-0.0719 -8.85,-0.52694 -13.25,-1.01113 -4.4,-0.48419 -13.625,-2.26781 -20.5,-3.96362 -6.875,-1.6958 -16.325,-4.65364 -21,-6.57299 -4.675,-1.91934 -11.74794,-5.27534 -15.71764,-7.45777 -3.96969,-2.18243 -10.71969,-6.48049 -15,-9.55125 -4.2803,-3.07076 -10.58688,-8.04523 -14.01464,-11.05438 -3.42775,-3.00915 -9.31978,-9.13573 -13.0934,-13.61462 C 221.4007,435.16455 216.17339,428.35 213.55809,424.5 c -2.61531,-3.85 -6.94265,-11.5 -9.61632,-17 -2.67367,-5.5 -6.23559,-14.275 -7.91539,-19.5 -1.67979,-5.225 -3.81644,-13.325 -4.7481,-18 -1.23024,-6.17326 -1.68898,-13.56409 -1.67587,-27 l 0.0181,-18.5 2.23157,-10.36219 c 1.22736,-5.6992 3.38258,-13.7992 4.78937,-18 1.40679,-4.20079 4.7326,-12.13781 7.39068,-17.63781 2.65808,-5.5 7.14538,-13.45804 9.97177,-17.68454 2.8264,-4.2265 8.18696,-11.20603 11.91236,-15.51007 3.72539,-4.30404 10.55577,-11.02709 15.17862,-14.9401 4.62284,-3.91302 12.00517,-9.4595 16.40517,-12.32552 4.4,-2.86602 11.68569,-6.97244 16.19043,-9.12537 4.50474,-2.15293 11.25474,-5.01017 15,-6.34942 3.74526,-1.33924 10.40957,-3.32449 14.80957,-4.41167 4.4,-1.08717 11.375,-2.54528 15.5,-3.24025 4.125,-0.69497 14.925,-1.26719 24,-1.2716 10.83699,-0.005 19.7646,0.55715 26.01189,1.63868 5.23154,0.90568 13.48883,2.79916 18.34952,4.20774 4.86069,1.40857 13.63666,4.70246 19.50214,7.31976 5.86548,2.61729 14.7082,7.38681 19.65048,10.59893 4.94228,3.21212 12.6794,8.94118 17.19359,12.73125 4.51418,3.79006 11.32636,10.43028 15.13817,14.75605 3.81181,4.32576 9.22724,11.26854 12.03428,15.4284 2.80704,4.15986 7.0851,11.52661 9.50679,16.37055 2.42169,4.84395 5.79747,12.7724 7.50172,17.61877 1.70426,4.84638 4.09657,13.39638 5.31625,19 l 2.2176,10.18841 -0.0218,19.5 -0.0218,19.5 -2.19581,10.18841 c -1.20769,5.60362 -3.59494,14.15362 -5.30499,19 -1.71005,4.84637 -4.91379,12.41159 -7.11941,16.81159 -2.20563,4.4 -6.04201,11.15 -8.5253,15 -2.48328,3.85 -7.10351,10.15 -10.26717,14 -3.16366,3.85 -7.15324,8.32453 -8.86573,9.94341 -1.94585,1.83947 -3.46484,2.58958 -4.05007,2 -0.51504,-0.51888 -4.47498,-6.09271 -8.79986,-12.38629 l -7.86342,-11.44288 3.26313,-7.55712 c 1.79472,-4.15642 4.63117,-12.86937 6.30321,-19.36212 1.67204,-6.49274 3.80054,-17.29274 4.73,-24 1.14924,-8.29325 1.67912,-18.7539 1.65616,-32.695 -0.0186,-11.275 -0.58008,-24.325 -1.2478,-29 -0.66772,-4.675 -2.1285,-12.95918 -3.24617,-18.40929 -1.11767,-5.45011 -3.82896,-15.12511 -6.02509,-21.5 -2.19613,-6.37489 -6.06298,-15.60228 -8.593,-20.50532 -2.53002,-4.90304 -7.1514,-12.32804 -10.26972,-16.5 -3.11833,-4.17196 -8.99701,-10.78466 -13.06375,-14.69489 -4.06673,-3.91022 -10.62334,-9.19803 -14.57024,-11.75069 -3.94691,-2.55267 -10.53364,-5.98559 -14.63719,-7.62874 -4.10355,-1.64314 -10.54927,-3.72596 -14.32382,-4.62848 -4.36561,-1.04385 -11.2293,-1.64495 -18.86281,-1.65193 -7.64036,-0.007 -14.90643,0.61545 -20,1.7133 -4.4,0.94835 -11.35066,3.11511 -15.4459,4.81503 -4.09525,1.69992 -11.35455,5.7052 -16.13178,8.90064 -4.84141,3.23836 -12.02514,9.35955 -16.23034,13.82971 -4.14946,4.4109 -9.56631,11.06108 -12.03743,14.77819 -2.47113,3.7171 -6.48043,10.80254 -8.90956,15.74542 -2.42914,4.94288 -5.38103,11.68705 -6.55977,14.98705 -1.17874,3.3 -3.24928,9.89003 -4.6012,14.64451 -1.35192,4.75447 -3.4409,15.32947 -4.64218,23.5 L 236.7577,323.5 l 0.55271,25 0.55271,25 2.45923,12.62831 c 1.35258,6.94558 3.89943,17.05851 5.65968,22.4732 1.76025,5.41468 4.53083,12.77894 6.15683,16.36501 1.626,3.58608 4.94104,9.89814 7.36674,14.02681 2.4257,4.12867 7.37187,11.20157 10.99149,15.71756 3.61962,4.51599 10.27603,11.16927 14.79202,14.78506 4.53419,3.63036 12.68872,8.77684 18.21089,11.49322 5.5,2.70549 12.7,5.59092 16,6.41208 3.3,0.82116 8.475,1.76421 11.5,2.09566 3.025,0.33145 6.9625,0.82563 8.75,1.09818 1.7875,0.27254 3.25,0.92515 3.25,1.45022 0,0.52508 -2.3625,0.89583 -5.25,0.82389 z m 121.5,0.0639 c -24.95439,-0.0495 -34.8482,-0.41011 -37.96396,-1.38385 -2.31768,-0.72433 -6.18025,-2.46929 -8.5835,-3.87769 -2.40325,-1.40839 -7.03196,-5.40713 -10.28604,-8.88608 -3.25407,-3.47895 -7.76201,-9.46639 -10.01763,-13.30542 C 390.14325,461.64103 384.7903,451.75 380.50343,443.5 c -4.28687,-8.25 -9.79767,-18.11925 -12.24621,-21.93166 -2.44855,-3.81241 -6.88863,-9.31066 -9.86684,-12.21832 -3.28436,-3.20657 -8.33268,-6.69005 -12.83053,-8.85343 -5.25473,-2.52742 -9.9181,-3.90159 -16.00358,-4.71582 -4.72339,-0.63198 -8.24334,-1.44562 -7.82212,-1.80809 0.42122,-0.36246 3.24085,-1.38474 6.26585,-2.27171 3.025,-0.88698 8.30872,-2.14036 11.74161,-2.78528 3.84465,-0.72229 11.52522,-0.98284 20,-0.67847 9.31435,0.33451 15.37342,1.05245 18.75839,2.22265 2.75,0.95069 7.81755,3.1004 11.26121,4.77713 3.44367,1.67673 9.17593,5.7194 12.73835,8.98371 3.56242,3.26431 8.90544,9.61255 11.87337,14.1072 2.96793,4.49465 7.99291,13.12209 11.16663,19.17209 3.17372,6.05 7.94752,14.6573 10.60845,19.12734 2.66093,4.47004 6.63117,9.74732 8.82275,11.72728 2.19158,1.97996 5.68221,4.3244 7.75696,5.20987 2.65036,1.13113 5.52177,1.45993 9.65465,1.10555 4.4058,-0.37778 6.91596,-1.24878 10,-3.46992 2.2647,-1.63104 6.17022,-5.96012 8.67894,-9.62017 2.50872,-3.66006 5.88372,-10.23589 7.5,-14.61298 1.61628,-4.37708 3.27619,-7.96027 3.68869,-7.96265 C 492.6625,439.00194 493,451.15 493,466 v 27 z"/>
</svg>
